<?xml version="1.0" encoding="utf-8"?>
<!-- Generator: Adobe Illustrator 17.0.2, SVG Export Plug-In . SVG Version: 6.00 Build 0)  -->
<!DOCTYPE svg PUBLIC "-//W3C//DTD SVG 1.1//EN" "http://www.w3.org/Graphics/SVG/1.1/DTD/svg11.dtd">
<svg version="1.1" id="Layer_1" xmlns="http://www.w3.org/2000/svg" xmlns:xlink="http://www.w3.org/1999/xlink" x="0px" y="0px"
	 width="300px" height="193.857px" viewBox="0 0 300 193.857" enable-background="new 0 0 300 193.857" xml:space="preserve">
<g>
	
		<line fill="none" stroke="#E8198D" stroke-width="12.9916" stroke-miterlimit="10" x1="36.36" y1="61.023" x2="262.784" y2="61.023"/>
	<polygon fill="none" stroke="#E8198D" stroke-width="12.9916" stroke-miterlimit="10" points="193.187,107.422 105.958,107.422 
		87.398,61.023 211.746,61.023 	"/>
	
		<line fill="none" stroke="#E8198D" stroke-width="9.2797" stroke-miterlimit="10" x1="72.551" y1="16.481" x2="3.881" y2="16.481"/>
	<rect x="27.08" y="23.904" fill="#E8198D" width="22.271" height="59.39"/>
	
		<line fill="none" stroke="#E8198D" stroke-width="9.2797" stroke-miterlimit="10" x1="297.119" y1="16.481" x2="228.449" y2="16.481"/>
	<rect x="251.649" y="23.904" fill="#E8198D" width="22.271" height="59.39"/>
	
		<line fill="none" stroke="#E8198D" stroke-width="12.9916" stroke-miterlimit="10" x1="38.216" y1="3.489" x2="38.216" y2="18.337"/>
	
		<line fill="none" stroke="#E8198D" stroke-width="12.9916" stroke-miterlimit="10" x1="262.784" y1="3.489" x2="262.784" y2="18.337"/>
	<polyline fill="none" stroke="#E8198D" stroke-width="12.9916" stroke-miterlimit="10" points="101.318,101.854 77.654,162.172 
		77.654,190.011 	"/>
	<polyline fill="none" stroke="#E8198D" stroke-width="12.9916" stroke-miterlimit="10" points="197.29,101.854 220.882,162.172 
		220.882,190.011 	"/>
	<g>
		<path fill="#E8198D" d="M129.621,142.394v24.939h39.903v-24.939H129.621z M156.163,161.811c-3.837,0-6.947-3.11-6.947-6.947
			s3.11-6.947,6.947-6.947s6.947,3.11,6.947,6.947S160,161.811,156.163,161.811z"/>
	</g>
	
		<line fill="none" stroke="#E8198D" stroke-width="3.7119" stroke-miterlimit="10" x1="149.572" y1="115.309" x2="149.572" y2="141.292"/>
</g>
</svg>
