<?xml version="1.0" encoding="utf-8"?>
<!-- Generator: Adobe Illustrator 17.0.2, SVG Export Plug-In . SVG Version: 6.00 Build 0)  -->
<!DOCTYPE svg PUBLIC "-//W3C//DTD SVG 1.1//EN" "http://www.w3.org/Graphics/SVG/1.1/DTD/svg11.dtd">
<svg version="1.1" id="Layer_1" xmlns="http://www.w3.org/2000/svg" xmlns:xlink="http://www.w3.org/1999/xlink" x="0px" y="0px"
	 width="1075.544px" height="486.074px" viewBox="0 0 1075.544 486.074" enable-background="new 0 0 1075.544 486.074"
	 xml:space="preserve">

<!--  Cloud elements-->
	 <g class="clouds">
	 	<path fill="#AAA991" d="M446.096,65.804c6.012,0,10.886-4.874,10.886-10.886c0-5.164-3.598-9.486-8.423-10.602
	 		c-0.099-10.927-8.986-19.755-19.936-19.755c-7.518,0-14.063,4.162-17.46,10.306c-1.034-0.447-2.173-0.696-3.371-0.696
	 		c-4.315,0-7.876,3.218-8.422,7.384c-5.615,1.113-9.848,6.065-9.848,12.007c0,6.762,5.481,12.243,12.243,12.243
	 		C403.647,65.804,444.806,65.804,446.096,65.804z"/>
	 	<path fill="#AAA991" d="M446.096,65.804c6.012,0,10.886-4.874,10.886-10.886c0-5.164-3.598-9.486-8.423-10.602
	 		c-0.099-10.927-8.986-19.755-19.936-19.755c-7.518,0-14.063,4.162-17.46,10.306c-1.034-0.447-2.173-0.696-3.371-0.696
	 		c-4.315,0-7.876,3.218-8.422,7.384c-5.615,1.113-9.848,6.065-9.848,12.007c0,6.762,5.481,12.243,12.243,12.243
	 		C403.647,65.804,444.806,65.804,446.096,65.804z"/>
	 	<path fill="#AAA991" d="M504.004,53.421c3.162,0,5.725-2.563,5.725-5.725c0-2.716-1.892-4.989-4.43-5.576
	 		c-0.052-5.747-4.726-10.39-10.485-10.39c-3.954,0-7.396,2.189-9.183,5.42c-0.544-0.235-1.143-0.366-1.773-0.366
	 		c-2.269,0-4.142,1.692-4.429,3.883c-2.953,0.586-5.179,3.19-5.179,6.315c0,3.556,2.883,6.439,6.439,6.439
	 		C481.679,53.421,503.325,53.421,504.004,53.421z"/>
	 	<path fill="#7F7E6C" d="M485.264,79.491c7.057,0,12.779-5.721,12.779-12.779c0-6.062-4.223-11.135-9.887-12.446
	 		c-0.116-12.828-10.549-23.191-23.403-23.191c-8.826,0-16.509,4.885-20.497,12.099c-1.213-0.525-2.551-0.817-3.957-0.817
	 		c-5.065,0-9.246,3.777-9.886,8.668c-6.591,1.307-11.561,7.12-11.561,14.095c0,7.937,6.434,14.372,14.372,14.372
	 		C435.433,79.491,483.749,79.491,485.264,79.491z"/>
	 	<path fill="#7F7E6C" d="M786.376,119.249c7.057,0,12.779-5.721,12.779-12.779c0-6.062-4.223-11.135-9.887-12.446
	 		c-0.116-12.828-10.549-23.191-23.404-23.191c-8.826,0-16.509,4.885-20.497,12.099c-1.213-0.525-2.551-0.817-3.957-0.817
	 		c-5.065,0-9.246,3.777-9.886,8.668c-6.591,1.307-11.561,7.12-11.561,14.095c0,7.937,6.435,14.372,14.372,14.372
	 		C736.545,119.249,784.861,119.249,786.376,119.249z"/>
	 	<path fill="#B7B69F" d="M820.919,139.453c7.057,0,12.779-5.721,12.779-12.779c0-6.062-4.223-11.135-9.887-12.446
	 		c-0.116-12.828-10.549-23.191-23.404-23.191c-8.826,0-16.509,4.885-20.497,12.099c-1.213-0.525-2.551-0.817-3.957-0.817
	 		c-5.065,0-9.246,3.777-9.886,8.668c-6.591,1.307-11.561,7.12-11.561,14.095c0,7.937,6.435,14.372,14.372,14.372
	 		C771.089,139.453,819.405,139.453,820.919,139.453z"/>
	 </g>

<!--  urban elements-->
	<g class="Stedelijk">
		<a xlink:href= "/details/Stedelijk">
			<g class="left_building">
				<g class="building">
					<rect x="585.605" y="243.155" fill="#81AF5D" width="57.614" height="132.105"/>
				</g>
				<g class="windows">
					<rect x="593.753" y="254.649" fill="#EDEDED" width="41.319" height="2.619"/>
					<rect x="593.753" y="265.997" fill="#EDEDED" width="41.319" height="2.619"/>
					<rect x="593.753" y="277.345" fill="#EDEDED" width="41.319" height="2.619"/>
					<rect x="593.753" y="288.693" fill="#EDEDED" width="41.319" height="2.619"/>
					<rect x="593.753" y="300.042" fill="#EDEDED" width="41.319" height="2.619"/>
					<rect x="593.753" y="311.39" fill="#EDEDED" width="41.319" height="2.619"/>
					<rect x="593.753" y="322.738" fill="#EDEDED" width="41.319" height="2.619"/>
					<rect x="593.753" y="334.086" fill="#EDEDED" width="41.319" height="2.619"/>
					<rect x="593.753" y="345.435" fill="#EDEDED" width="41.319" height="2.619"/>
					<rect x="593.753" y="356.783" fill="#EDEDED" width="41.319" height="2.619"/>
				</g>
			</g>
			<g class="center_building">
				<g class="building">
					<rect x="637.24" y="178.557" fill="#F29F55" width="46.702" height="202.813"/>
					<rect x="641.168" y="169.828" fill="#F29F55" width="38.846" height="9.166"/>
					<rect x="648.588" y="161.098" fill="#F29F55" width="24.006" height="9.166"/>
					<rect x="654.262" y="152.369" fill="#F29F55" width="12.658" height="9.166"/>
					<rect x="659.282" y="134.037" fill="#F29F55" width="2.619" height="19.205"/>
				</g>
			</g>
			<g class="right_building">
				<g class="building">
					<rect x="669.753" y="279.167" fill="#E26E40" width="38.773" height="96.328"/>
					<polygon fill="#E26E40" points="701.143,279.264 677.137,279.264 677.137,270.098 689.071,265.098 701.143,270.098 	"/>
				</g>
				<g class="windows">
					<rect x="673.767" y="284.619" fill="#EDEDED" width="9.136" height="9.136"/>
					<rect x="684.472" y="284.619" fill="#EDEDED" width="9.136" height="9.136"/>
					<rect x="695.377" y="284.619" fill="#EDEDED" width="9.136" height="9.136"/>
					<rect x="673.767" y="299.765" fill="#EDEDED" width="9.136" height="9.136"/>
					<rect x="684.472" y="299.765" fill="#EDEDED" width="9.136" height="9.136"/>
					<rect x="695.377" y="299.765" fill="#EDEDED" width="9.136" height="9.136"/>
					<rect x="673.767" y="314.911" fill="#EDEDED" width="9.136" height="9.136"/>
					<rect x="684.472" y="314.911" fill="#EDEDED" width="9.136" height="9.136"/>
					<rect x="695.377" y="314.911" fill="#EDEDED" width="9.136" height="9.136"/>
					<rect x="673.767" y="330.057" fill="#EDEDED" width="9.136" height="9.136"/>
					<rect x="684.472" y="330.057" fill="#EDEDED" width="9.136" height="9.136"/>
					<rect x="695.377" y="330.057" fill="#EDEDED" width="9.136" height="9.136"/>
					<rect x="673.767" y="345.203" fill="#EDEDED" width="9.136" height="9.136"/>
					<rect x="684.472" y="345.203" fill="#EDEDED" width="9.136" height="9.136"/>
					<rect x="695.377" y="345.203" fill="#EDEDED" width="9.136" height="9.136"/>
				</g>
				<g class="door">
					<rect x="685.101" y="360.348" fill="#EDEDED" width="8.078" height="15.348"/>
				</g>
			</g>
			<g class="hills">
				<path fill="#56BC76" d="M493.833,437.312c68.812-41.603,71.713-72.288,160.221-72.288c88.493,0,86.906,27.945,160.217,72.288
						H493.833z"/>
			</g>
		</a>
	 </g>

<!--  Rural elements-->
	<g class="Landelijk">
		<a xlink:href= "/details/Landelijk">
			<g class="hills">
				<path fill="#1C9958" d="M680.9,403.312c56.946-66.055,59.347-114.776,132.594-114.776c73.233,0,71.92,44.37,132.59,114.776H680.9z
	 			"/>
				<path fill="#72C597" d="M673.877,403.312c35.866-41.603,37.378-72.288,83.51-72.288c46.124,0,45.297,27.945,83.508,72.288H673.877
						z"/>
				<path fill="#1C9958" d="M962.606,401.357c23.689-27.479,24.688-47.746,55.158-47.746c30.465,0,29.918,18.458,55.157,47.746
			 		H962.606z"/>
	 			<path fill="#56BC76" d="M803.308,403.312c49.808-57.775,51.908-100.39,115.974-100.39c64.054,0,62.905,38.809,115.971,100.39
	 				H803.308z"/>
	 		</g>
			<g class="trees">
				<path fill="#716659" d="M933.062,273.488c0,6.554-5.313,11.866-11.867,11.866l0,0c-6.554,0-11.867-5.313-11.867-11.866v-33.622
					c0-6.554,5.313-11.867,11.867-11.867l0,0c6.554,0,11.867,5.313,11.867,11.867V273.488z"/>
				<rect x="919.937" y="280.792" fill="#716659" width="2.515" height="22.083"/>
				<path fill="#716659" d="M1027.284,338.394c0,3.416-2.769,6.185-6.185,6.185l0,0c-3.416,0-6.185-2.769-6.185-6.185v-17.525
					c0-3.416,2.769-6.185,6.185-6.185l0,0c3.416,0,6.185,2.769,6.185,6.185V338.394z"/>
				<rect x="1020.443" y="342.201" fill="#716659" width="1.311" height="11.511"/>
				<path fill="#4F473F" d="M806.99,273.87c0,3.416-2.769,6.185-6.185,6.185l0,0c-3.416,0-6.185-2.769-6.185-6.185v-17.525
					c0-3.416,2.769-6.185,6.185-6.185l0,0c3.416,0,6.185,2.769,6.185,6.185V273.87z"/>
				<rect x="800.149" y="277.677" fill="#4F473F" width="1.311" height="11.511"/>
				<path fill="#4F473F" d="M829.801,365.116c0,3.416-2.769,6.185-6.185,6.185l0,0c-3.416,0-6.185-2.769-6.185-6.185v-17.525
					c0-3.416,2.769-6.185,6.185-6.185l0,0c3.416,0,6.185,2.769,6.185,6.185V365.116z"/>
				<rect x="822.96" y="368.923" fill="#4F473F" width="1.311" height="11.511"/>
				<path fill="#716659" d="M769.138,309.187c0,4.842-3.925,8.768-8.768,8.768l0,0c-4.842,0-8.768-3.925-8.768-8.768v-24.842
					c0-4.842,3.925-8.768,8.768-8.768l0,0c4.842,0,8.768,3.925,8.768,8.768V309.187z"/>
				<rect x="759.441" y="314.584" fill="#716659" width="1.859" height="16.316"/>
				<path fill="#716659" d="M826.173,259.149c0,6.554-5.313,11.866-11.867,11.866l0,0c-6.554,0-11.867-5.313-11.867-11.866v-33.622
					c0-6.554,5.313-11.867,11.867-11.867l0,0c6.554,0,11.867,5.313,11.867,11.867V259.149z"/>
				<rect x="813.049" y="266.453" fill="#716659" width="2.515" height="22.083"/>
			</g>
		</a>
	</g>

<!-- Water elements -->
	<g class="water">
		<path fill="#72BCCE" d="M369.155,413.751l113.406,49.534l396.921,1.303l17.597-63.221c0,0-138.173-11.732-175.323-1.955
			c-37.15,9.776-88.639-9.125-127.745-5.866c-39.106,3.259-64.524-1.304-111.451,5.214c-46.927,6.518-110.147-2.607-116.013,3.911
			C360.683,409.188,369.155,413.751,369.155,413.751z"/>
	</g>

<!-- Ground elements -->
	<g class="ground">
		<path fill="#716659" d="M187.967,401.367c21.18-0.066,42.372,0.132,63.549-0.226c36.235-0.612,72.667,1.3,108.847,0.203
			c7.276-0.221,14.493-1.96,21.784-1.373c19.931,1.605,37.784,12.946,55.335,21.677c19.765,9.832,39.823,19.089,60.302,27.342
			c9.311,3.752,22.761,3.594,32.749,4.896c8.185,1.067,16.409,2.014,24.662,2.332c10.466,0.403,20.825-0.774,31.27-1.107
			c27.751-0.886,55.627,0.72,83.412,0.298c54.164-0.821,108.375,0.441,162.551,0.105c8.077-0.047,26.086,3.908,32.69-0.304
			c8.266-5.277,5.857-21.05,7.848-29.256c2.406-9.919,9.415-25.239,21.507-25.239c0.013,0,177.93,0,177.93,0
			c-44.381,18.182-88.765,36.356-133.141,54.55c-20.325,8.333-40.63,16.718-60.994,24.956c-12.742,5.155-27.749,3.256-41.201,3.266
			c-17.069,0.013-34.139,0.015-51.208,0.004c-53.764-0.037-107.529-0.122-161.293-0.022c-32.938,0.062-66.611,2.218-99.447,0.003
			c-24.657-1.663-49.962-9.643-74.22-14.573c-25.375-5.157-50.677-10.626-75.985-16.102c-49.156-10.636-98.536-21.522-146.784-35.809
			c-8.766-2.596-17.545-5.31-26.077-8.608C198.854,407.143,191.092,401.357,187.967,401.367z"/>
	</g>

<!--  Industrial elements-->
	<g class="Industrie">
		<g class="hills">
			<path fill="#56BE8A" d="M2.623,402.011c0,0,101.231-83.695,228.766-35.072h148.166l32.681,35.072H2.623z"/>
		</g>
		<g class="smoke">
			<circle fill="#AAA991" cx="244.174" cy="77.271" r="15.411"/>
			<circle fill="#AAA991" cx="310.585" cy="122.847" r="7.423"/>
			<circle fill="#7F7E6C" cx="315.443" cy="113.669" r="10.392"/>
			<circle fill="#AAA991" cx="349.987" cy="72.608" r="14.303"/>
			<circle fill="#AAA991" cx="304.97" cy="22.289" r="9.974"/>
			<circle fill="#AAA991" cx="274.337" cy="39.234" r="6.162"/>
			<circle fill="#CDCCB2" cx="317.199" cy="15.569" r="13.964"/>
		</g>
		<a xlink:href= "/details/Industrie">
			<g class="building">
			<g class="center_building">
				<g class="building">
					<polygon fill="#72BCCE" points="272.041,385.272 218.37,385.272 223.684,80.512 266.727,80.512 	"/>
					<rect x="223.684" y="76.265" fill="#62A4AF" width="43.043" height="6.377"/>
				</g>
			</g>
			<g class="left_building">
				<g class="buiding">
					<polygon fill="#656FB4" points="236.438,387.663 92.693,387.663 124.578,248.968 209.867,248.968 	"/>
				</g>
			</g>
			<g class="right_building">
				<g class="building">
					<rect x="267.97" y="258.84" fill="#656FB4" width="72.273" height="115.141"/>
					<polygon fill="#656FB4" points="329.792,259.903 278.421,259.903 283.735,233.686 324.477,233.686 	"/>
					<rect x="289.758" y="138.207" fill="#656FB4" width="28.697" height="95.656"/>
					<rect x="289.758" y="212.606" fill="#FFFFFF" width="28.697" height="10.628"/>
					<rect x="289.758" y="191.349" fill="#FFFFFF" width="28.697" height="10.628"/>
					<rect x="289.758" y="170.093" fill="#FFFFFF" width="28.697" height="10.628"/>
					<rect x="289.758" y="148.836" fill="#FFFFFF" width="28.697" height="10.628"/>
					<rect x="340.206" y="339.6" fill="#72BCCE" width="78.863" height="27.374"/>
				</g>
			</g>
		</g>
		</a>
		<g class="waste">
			<circle fill="#716659" cx="529.702" cy="428.67" r="7.423"/>
			<circle fill="#716659" cx="508.632" cy="430.045" r="2.191"/>
			<circle fill="#716659" cx="517.078" cy="430.943" r="2.823"/>
			<circle fill="#716659" cx="539.988" cy="430.095" r="10.392"/>
			<path fill="#716659" d="M420.644,344.664c0,0,64.722,10.292,77.658,37.082c12.936,26.79,10.246,38.479-7.962,31.657
				c-18.208-6.822-57.313-53.097-69.697-52.445v-16.294H420.644z"/>
				<path fill="#716659" d="M517.219,406.519c-0.34-0.508-0.826-0.841-1.611-0.99c-1.338-0.254-2.195,0.562-2.951,1.255
					c-0.727,0.667-1.692,1.713-2.732,1.756l-0.133-0.155c-1.061-1.545,0.978-2.57,2.569-2.938c0.965-0.223,3.054-0.437,3.287-1.663
					c0.126-0.661-0.332-1.599-0.897-1.842c-0.715-0.307-1.406,0.278-1.901,0.616c-0.677,0.462-0.978,0.75-1.575,1.292
					c-0.748,0.679-1.133,1.371-2.143,1.179c-1.413-0.268-0.374-2.648-0.203-3.544c-2.214-2.18-2.017,0.519-3.43,0.371
					c-0.474-0.851,2.827-6.015,3.44-6.846c1.181-1.602,3.889-4.064,4.231-5.865c0.181-0.955-0.134-1.502-0.648-1.73l-0.663-0.126
					c-0.483,0.004-1.017,0.178-1.464,0.483c-1.55,1.056-2.757,6.621-4.306,9.541c-2.693,5.077-3.178,2.023-3.015,1.161
					c0.253-1.329,3.061-5.115,0.621-5.578c-1.878-0.357-2.123-0.358-2.489,1.572c-0.245,1.289,0.721,2.358,0.512,3.457
					c-0.347,1.827-3.007,3.749-2.827-4.581c0.025-1.17,1.033-6.275-0.744-6.613c-0.851-0.161-1.31,0.747-1.449,1.478
					c-0.128,0.677,0.17,1.671,0.305,2.247c0.376,1.596,1.901,6.781,0.31,8.041c-1.392,1.102-1.468-1.755-1.717-2.664
					c-0.191-0.697-0.486-1.764-1.386-1.744c-1.967,0.043-0.459,2.305-1.746,3.045c-1.343,0.772-2.95-0.673-2.917-2.828
					c0.025-1.594,0.72-3.52-1.016-3.85c-3.373-0.64-1.443,3.978-0.805,5.335c0.643,1.367,1.287,2.985-0.462,3.81
					c-1.315,0.62-3.435-1.63-3.698-2.696c-0.5-2.025,0.088-5.623-2.687-6.149c-1.711-0.325-2.781,4.587-1.738,6.707
					c1.88,3.818,4.493,1.42,6.59,3.492c0.438,0.433,0.508,0.802,0.383,1.458c-0.166,0.873-1.882,0.684-2.173,2.216
					c-0.25,1.317,1.579,1.683,1.378,2.745c-0.253,1.334-2.063,1.496-3.108,1.745c-4.001,0.955-3.969-0.022-7.181-0.632
					c-0.416-0.079-0.935,0.572-1.136,1.367l-0.064,0.337c-0.116,0.916,0.234,1.91,1.632,2.176c3.355,0.637,4.619-0.193,7.319-1.511
					c0.752-0.367,2.005-1.156,2.824-1.263c2.439-0.318,3.813,1.964,0.901,2.406c-1.691,0.256-3.648,1.066-3.121,3.197
					c0.121,0.489,0.31,0.632,0.893,0.743c1.403,0.266,2.22-1.77,3.644-1.499c0.757,0.144,1.4,1.088,1.256,1.845
					c-0.395,2.081-3.107,4.188-2.051,5.938c0.537,0.891,1.883,1.16,2.825,0.787c0.587-0.232,1.636-1.727,1.799-2.586
					c0.154-0.81-0.324-1.828-0.231-2.405c0.095-0.594,1.21-1.207,1.773-1.1c0.975,0.185,0.628,0.996,1.954,1.247
					c1.504,0.285,1.576-1.892,3.503-1.526c0.982,0.186,0.751,7.505,0.444,8.548c-0.612,2.082,2.154,0.595,1.891-0.553
					c-0.127-0.555-0.268-0.806-0.44-1.307c-0.777-2.262,0.552-2.648,0.912-4.549l0,0c0.186-0.978-0.434-2.857,1.073-2.571
					c0.483,0.092,1.163,1.456,1.333,1.916c0.603,1.634,0.073,3.859,0.166,5.533c0.16,2.88,2.883,2.548,3.465-0.518
					c0.212-1.115,0.065-2.357-0.245-3.148c-0.72-1.836-2.404-2.415-3.138-4.492c-0.121-0.343-0.369-1.071-0.245-1.509
					c0.122-0.43,0.8-0.735,1.252-0.649c1.119,0.212,3.579,3.476,4.525,1.767c1.307-2.36-4.056-1.928-3.781-3.378
					c0.317-1.669,8.361-0.425,9.375-0.653c1.176-0.264,1.868-0.95,2.181-1.751l0.202-1.068
					C517.725,407.628,517.544,407.005,517.219,406.519z"/>
			</g>
	</g>

</svg>
