<?xml version="1.0" encoding="utf-8"?>
<!-- Generator: Adobe Illustrator 16.0.0, SVG Export Plug-In . SVG Version: 6.00 Build 0)  -->
<!DOCTYPE svg PUBLIC "-//W3C//DTD SVG 1.1//EN" "http://www.w3.org/Graphics/SVG/1.1/DTD/svg11.dtd">
<svg version="1.1" id="Layer_1" xmlns="http://www.w3.org/2000/svg" xmlns:xlink="http://www.w3.org/1999/xlink" x="0px" y="0px"
	 width="555.272px" height="486.074px" viewBox="0 0 555.272 486.074" enable-background="new 0 0 555.272 486.074"
	 xml:space="preserve">
<g>
	<rect x="637.241" y="178.557" fill="#F29F55" width="46.701" height="202.813"/>
	<rect x="641.168" y="169.828" fill="#F29F55" width="38.846" height="9.166"/>
	<rect x="648.588" y="161.098" fill="#F29F55" width="24.006" height="9.166"/>
	<rect x="654.262" y="152.369" fill="#F29F55" width="12.658" height="9.166"/>
	<g>
		<rect x="659.282" y="134.037" fill="#F29F55" width="2.619" height="19.205"/>
	</g>
</g>
<g>
	<rect x="585.606" y="243.155" fill="#81AF5D" width="57.613" height="132.105"/>
	<g>
		<rect x="593.752" y="254.649" fill="#EDEDED" width="41.32" height="2.619"/>
	</g>
	<g>
		<rect x="593.752" y="265.997" fill="#EDEDED" width="41.32" height="2.619"/>
	</g>
	<g>
		<rect x="593.752" y="277.345" fill="#EDEDED" width="41.32" height="2.618"/>
	</g>
	<g>
		<rect x="593.752" y="288.693" fill="#EDEDED" width="41.32" height="2.619"/>
	</g>
	<g>
		<rect x="593.752" y="300.042" fill="#EDEDED" width="41.32" height="2.619"/>
	</g>
	<g>
		<rect x="593.752" y="311.39" fill="#EDEDED" width="41.32" height="2.619"/>
	</g>
	<g>
		<rect x="593.752" y="322.738" fill="#EDEDED" width="41.32" height="2.619"/>
	</g>
	<g>
		<rect x="593.752" y="334.087" fill="#EDEDED" width="41.32" height="2.618"/>
	</g>
	<g>
		<rect x="593.752" y="345.435" fill="#EDEDED" width="41.32" height="2.619"/>
	</g>
	<g>
		<rect x="593.752" y="356.783" fill="#EDEDED" width="41.32" height="2.619"/>
	</g>
</g>
<g>
	<g>
		<rect x="669.752" y="279.167" fill="#E26E40" width="38.773" height="96.328"/>
		<g>
			<rect x="673.766" y="284.619" fill="#EDEDED" width="9.137" height="9.136"/>
			<rect x="684.471" y="284.619" fill="#EDEDED" width="9.137" height="9.136"/>
			<rect x="695.377" y="284.619" fill="#EDEDED" width="9.135" height="9.136"/>
		</g>
		<g>
			<rect x="673.766" y="299.765" fill="#EDEDED" width="9.137" height="9.136"/>
			<rect x="684.471" y="299.765" fill="#EDEDED" width="9.137" height="9.136"/>
			<rect x="695.377" y="299.765" fill="#EDEDED" width="9.135" height="9.136"/>
		</g>
		<g>
			<rect x="673.766" y="314.911" fill="#EDEDED" width="9.137" height="9.137"/>
			<rect x="684.471" y="314.911" fill="#EDEDED" width="9.137" height="9.137"/>
			<rect x="695.377" y="314.911" fill="#EDEDED" width="9.135" height="9.137"/>
		</g>
		<g>
			<rect x="673.766" y="330.057" fill="#EDEDED" width="9.137" height="9.136"/>
			<rect x="684.471" y="330.057" fill="#EDEDED" width="9.137" height="9.136"/>
			<rect x="695.377" y="330.057" fill="#EDEDED" width="9.135" height="9.136"/>
		</g>
		<g>
			<rect x="673.766" y="345.203" fill="#EDEDED" width="9.137" height="9.137"/>
			<rect x="684.471" y="345.203" fill="#EDEDED" width="9.137" height="9.137"/>
			<rect x="695.377" y="345.203" fill="#EDEDED" width="9.135" height="9.137"/>
		</g>
		<rect x="685.1" y="360.348" fill="#EDEDED" width="8.078" height="15.348"/>
	</g>
	<polygon fill="#E26E40" points="701.143,279.264 677.137,279.264 677.137,270.098 689.071,265.098 701.143,270.098 	"/>
</g>
<g>
	<circle fill="#AAA991" cx="244.174" cy="77.271" r="15.411"/>
	<rect x="267.97" y="258.84" fill="#656FB4" width="72.273" height="115.142"/>
	<polygon fill="#72BCCE" points="272.041,385.272 218.37,385.272 223.684,80.512 266.727,80.512 	"/>
	<polygon fill="#656FB4" points="236.438,387.663 92.693,387.663 124.578,248.968 209.867,248.968 	"/>
	<rect x="223.684" y="76.265" fill="#62A4AF" width="43.043" height="6.377"/>
	<path fill="#56BE8A" d="M2.623,402.011c0,0,101.231-83.695,228.766-35.072h148.166l32.681,35.072H2.623z"/>
	<polygon fill="#656FB4" points="329.792,259.903 278.421,259.903 283.735,233.686 324.477,233.686 	"/>
	<rect x="289.758" y="138.207" fill="#656FB4" width="28.697" height="95.656"/>
	<rect x="289.758" y="212.606" fill="#FFFFFF" width="28.697" height="10.628"/>
	<rect x="289.758" y="191.349" fill="#FFFFFF" width="28.697" height="10.628"/>
	<rect x="289.758" y="170.094" fill="#FFFFFF" width="28.697" height="10.628"/>
	<rect x="289.758" y="148.836" fill="#FFFFFF" width="28.697" height="10.628"/>
	<circle fill="#AAA991" cx="310.585" cy="122.847" r="7.423"/>
	<circle fill="#7F7E6C" cx="315.443" cy="113.669" r="10.392"/>
	<circle fill="#AAA991" cx="349.987" cy="72.608" r="14.303"/>
	<circle fill="#AAA991" cx="304.97" cy="22.289" r="9.974"/>
	<circle fill="#AAA991" cx="274.337" cy="39.234" r="6.162"/>
	<circle fill="#CDCCB2" cx="317.199" cy="15.569" r="13.964"/>
	<rect x="340.206" y="339.6" fill="#72BCCE" width="78.863" height="27.374"/>
	<g>
		<path fill="#1C9958" d="M680.901,403.312c56.945-66.055,59.346-114.776,132.594-114.776c73.232,0,71.92,44.37,132.59,114.776
			H680.901z"/>
	</g>
	<g>
		<path fill="#1C9958" d="M962.606,401.357c23.689-27.479,24.688-47.746,55.158-47.746c30.465,0,29.918,18.458,55.156,47.746
			H962.606z"/>
	</g>
	<g>
		<path fill="#72C597" d="M673.877,403.312c35.865-41.603,37.377-72.288,83.51-72.288c46.123,0,45.297,27.945,83.508,72.288H673.877
			z"/>
	</g>
	<g>
		<path fill="#56BC76" d="M493.833,437.312c68.812-41.603,71.712-72.288,160.22-72.288c88.494,0,86.906,27.945,160.219,72.288
			H493.833z"/>
	</g>
	<path fill="#716659" d="M933.063,273.488c0,6.554-5.314,11.866-11.867,11.866l0,0c-6.555,0-11.867-5.313-11.867-11.866v-33.622
		c0-6.554,5.313-11.867,11.867-11.867l0,0c6.553,0,11.867,5.313,11.867,11.867V273.488z"/>
	<g>
		<rect x="919.938" y="280.792" fill="#716659" width="2.514" height="22.084"/>
	</g>
	<path fill="#716659" d="M1027.284,338.394c0,3.416-2.77,6.185-6.186,6.185l0,0c-3.416,0-6.184-2.769-6.184-6.185v-17.525
		c0-3.416,2.768-6.185,6.184-6.185l0,0c3.416,0,6.186,2.769,6.186,6.185V338.394z"/>
	<g>
		<rect x="1020.444" y="342.201" fill="#716659" width="1.311" height="11.512"/>
	</g>
	<path fill="#4F473F" d="M806.991,273.87c0,3.416-2.77,6.186-6.186,6.186l0,0c-3.416,0-6.186-2.77-6.186-6.186v-17.524
		c0-3.416,2.77-6.186,6.186-6.186l0,0c3.416,0,6.186,2.77,6.186,6.186V273.87z"/>
	<g>
		<rect x="800.149" y="277.677" fill="#4F473F" width="1.311" height="11.511"/>
	</g>
	<path fill="#4F473F" d="M829.801,365.116c0,3.416-2.77,6.186-6.186,6.186l0,0c-3.416,0-6.186-2.77-6.186-6.186v-17.524
		c0-3.416,2.77-6.186,6.186-6.186l0,0c3.416,0,6.186,2.77,6.186,6.186V365.116z"/>
	<g>
		<rect x="822.959" y="368.924" fill="#4F473F" width="1.313" height="11.511"/>
	</g>
	<path fill="#716659" d="M769.137,309.187c0,4.842-3.924,8.768-8.768,8.768l0,0c-4.842,0-8.768-3.925-8.768-8.768v-24.842
		c0-4.843,3.926-8.769,8.768-8.769l0,0c4.842,0,8.768,3.925,8.768,8.769V309.187z"/>
	<g>
		<rect x="759.442" y="314.585" fill="#716659" width="1.857" height="16.315"/>
	</g>
	<path fill="#716659" d="M826.172,259.149c0,6.554-5.313,11.866-11.867,11.866l0,0c-6.553,0-11.865-5.313-11.865-11.866v-33.622
		c0-6.554,5.313-11.867,11.865-11.867l0,0c6.555,0,11.867,5.313,11.867,11.867V259.149z"/>
	<g>
		<rect x="813.049" y="266.453" fill="#716659" width="2.516" height="22.083"/>
	</g>
	<g>
		<path fill="#56BC76" d="M803.307,403.312c49.809-57.775,51.908-100.39,115.975-100.39c64.055,0,62.906,38.809,115.971,100.39
			H803.307z"/>
	</g>
	<path fill="#72BCCE" d="M369.155,413.752l113.406,49.533l396.922,1.304l17.596-63.222c0,0-138.172-11.731-175.322-1.955
		s-88.639-9.125-127.746-5.865c-39.105,3.259-64.523-1.305-111.451,5.214c-46.927,6.518-110.146-2.607-116.013,3.911
		C360.683,409.188,369.155,413.752,369.155,413.752z"/>
	<path fill="#716659" d="M187.967,401.367c21.18-0.065,42.372,0.132,63.549-0.226c36.235-0.612,72.667,1.3,108.847,0.203
		c7.276-0.222,14.493-1.96,21.784-1.373c19.931,1.604,37.784,12.946,55.335,21.677c19.765,9.832,39.822,19.089,60.302,27.342
		c9.311,3.752,22.761,3.595,32.749,4.896c8.184,1.066,16.409,2.014,24.663,2.332c10.465,0.402,20.824-0.774,31.27-1.107
		c27.75-0.886,55.627,0.72,83.412,0.298c54.164-0.82,108.375,0.441,162.551,0.105c8.076-0.047,26.086,3.908,32.689-0.304
		c8.266-5.277,5.857-21.051,7.848-29.257c2.406-9.919,9.416-25.238,21.508-25.238c0.014,0,177.93,0,177.93,0
		c-44.381,18.182-88.766,36.355-133.141,54.55c-20.324,8.333-40.631,16.718-60.994,24.956c-12.742,5.155-27.748,3.256-41.201,3.266
		c-17.068,0.014-34.139,0.016-51.207,0.004c-53.766-0.037-107.529-0.122-161.293-0.021c-32.939,0.062-66.611,2.218-99.448,0.003
		c-24.657-1.663-49.962-9.644-74.22-14.573c-25.375-5.157-50.677-10.626-75.985-16.102c-49.156-10.637-98.536-21.522-146.784-35.81
		c-8.766-2.596-17.545-5.31-26.077-8.607C198.854,407.143,191.092,401.357,187.967,401.367z"/>
	<path fill="#AAA991" d="M446.096,65.804c6.013,0,10.887-4.874,10.887-10.887c0-5.164-3.599-9.485-8.424-10.602
		c-0.099-10.927-8.985-19.755-19.936-19.755c-7.518,0-14.063,4.162-17.46,10.306c-1.034-0.447-2.173-0.696-3.371-0.696
		c-4.315,0-7.876,3.219-8.422,7.385c-5.615,1.112-9.848,6.064-9.848,12.007c0,6.762,5.481,12.243,12.243,12.243
		C403.647,65.804,444.806,65.804,446.096,65.804z"/>
	<path fill="#AAA991" d="M446.096,65.804c6.013,0,10.887-4.874,10.887-10.887c0-5.164-3.599-9.485-8.424-10.602
		c-0.099-10.927-8.985-19.755-19.936-19.755c-7.518,0-14.063,4.162-17.46,10.306c-1.034-0.447-2.173-0.696-3.371-0.696
		c-4.315,0-7.876,3.219-8.422,7.385c-5.615,1.112-9.848,6.064-9.848,12.007c0,6.762,5.481,12.243,12.243,12.243
		C403.647,65.804,444.806,65.804,446.096,65.804z"/>
	<path fill="#AAA991" d="M504.004,53.421c3.162,0,5.725-2.563,5.725-5.725c0-2.716-1.892-4.989-4.43-5.576
		c-0.052-5.747-4.726-10.39-10.484-10.39c-3.954,0-7.396,2.188-9.184,5.42c-0.544-0.235-1.143-0.366-1.772-0.366
		c-2.27,0-4.143,1.692-4.43,3.883c-2.953,0.586-5.179,3.19-5.179,6.315c0,3.556,2.883,6.438,6.439,6.438
		C481.679,53.421,503.325,53.421,504.004,53.421z"/>
	<path fill="#7F7E6C" d="M485.264,79.491c7.058,0,12.779-5.721,12.779-12.779c0-6.062-4.223-11.135-9.887-12.445
		c-0.116-12.828-10.549-23.191-23.403-23.191c-8.826,0-16.509,4.885-20.497,12.099c-1.213-0.524-2.551-0.816-3.957-0.816
		c-5.064,0-9.246,3.776-9.886,8.668c-6.591,1.307-11.561,7.12-11.561,14.095c0,7.938,6.434,14.372,14.372,14.372
		C435.433,79.491,483.749,79.491,485.264,79.491z"/>
	<path fill="#7F7E6C" d="M786.375,119.249c7.057,0,12.779-5.721,12.779-12.778c0-6.063-4.223-11.136-9.887-12.446
		c-0.115-12.828-10.549-23.191-23.404-23.191c-8.826,0-16.508,4.886-20.496,12.1c-1.213-0.525-2.551-0.817-3.957-0.817
		c-5.066,0-9.246,3.777-9.887,8.668c-6.592,1.307-11.561,7.12-11.561,14.095c0,7.938,6.436,14.372,14.371,14.372
		C736.545,119.249,784.862,119.249,786.375,119.249z"/>
	<path fill="#B7B69F" d="M820.918,139.453c7.057,0,12.779-5.721,12.779-12.779c0-6.062-4.223-11.135-9.887-12.445
		c-0.115-12.828-10.549-23.191-23.404-23.191c-8.826,0-16.508,4.885-20.496,12.1c-1.213-0.525-2.551-0.817-3.957-0.817
		c-5.066,0-9.246,3.777-9.887,8.668c-6.592,1.307-11.561,7.12-11.561,14.095c0,7.938,6.436,14.372,14.371,14.372
		C771.088,139.453,819.405,139.453,820.918,139.453z"/>
	<circle fill="#716659" cx="529.702" cy="428.67" r="7.423"/>
	<circle fill="#716659" cx="508.632" cy="430.045" r="2.191"/>
	<circle fill="#716659" cx="517.078" cy="430.943" r="2.823"/>
	<circle fill="#716659" cx="539.989" cy="430.095" r="10.392"/>
	<g>
		<path fill="#716659" d="M517.219,406.519c-0.34-0.508-0.826-0.841-1.61-0.99c-1.339-0.254-2.195,0.563-2.951,1.255
			c-0.728,0.667-1.692,1.713-2.732,1.756l-0.133-0.154c-1.061-1.545,0.978-2.57,2.569-2.938c0.965-0.223,3.054-0.437,3.287-1.663
			c0.125-0.66-0.332-1.599-0.897-1.842c-0.715-0.307-1.406,0.278-1.901,0.616c-0.677,0.462-0.978,0.75-1.574,1.292
			c-0.748,0.679-1.134,1.371-2.144,1.179c-1.413-0.268-0.374-2.647-0.203-3.544c-2.214-2.18-2.017,0.52-3.43,0.371
			c-0.474-0.851,2.827-6.015,3.44-6.846c1.181-1.603,3.889-4.064,4.23-5.865c0.181-0.955-0.134-1.502-0.648-1.73l-0.662-0.126
			c-0.483,0.005-1.018,0.179-1.465,0.483c-1.55,1.056-2.757,6.621-4.306,9.541c-2.692,5.077-3.178,2.023-3.015,1.161
			c0.253-1.329,3.061-5.115,0.621-5.578c-1.878-0.357-2.123-0.358-2.489,1.572c-0.245,1.289,0.721,2.357,0.512,3.457
			c-0.347,1.827-3.007,3.749-2.827-4.581c0.025-1.17,1.033-6.275-0.744-6.613c-0.851-0.161-1.31,0.747-1.448,1.479
			c-0.128,0.677,0.17,1.671,0.305,2.246c0.376,1.597,1.901,6.781,0.31,8.041c-1.392,1.103-1.468-1.755-1.717-2.664
			c-0.19-0.696-0.485-1.764-1.386-1.743c-1.967,0.043-0.459,2.305-1.746,3.045c-1.343,0.771-2.95-0.673-2.917-2.828
			c0.025-1.594,0.72-3.521-1.016-3.851c-3.373-0.64-1.443,3.979-0.806,5.336c0.644,1.366,1.287,2.984-0.462,3.81
			c-1.314,0.62-3.435-1.63-3.697-2.696c-0.5-2.024,0.088-5.623-2.688-6.148c-1.711-0.325-2.781,4.587-1.738,6.707
			c1.88,3.817,4.493,1.42,6.59,3.491c0.438,0.434,0.509,0.803,0.384,1.458c-0.166,0.873-1.882,0.685-2.173,2.217
			c-0.25,1.316,1.578,1.683,1.378,2.744c-0.253,1.335-2.063,1.496-3.108,1.745c-4.001,0.955-3.969-0.021-7.181-0.632
			c-0.416-0.079-0.936,0.572-1.137,1.367l-0.063,0.337c-0.116,0.916,0.234,1.91,1.632,2.176c3.355,0.638,4.619-0.192,7.319-1.511
			c0.752-0.367,2.005-1.156,2.823-1.263c2.439-0.318,3.813,1.964,0.901,2.406c-1.691,0.256-3.647,1.065-3.121,3.196
			c0.121,0.489,0.311,0.632,0.894,0.743c1.402,0.266,2.22-1.77,3.644-1.499c0.757,0.145,1.4,1.088,1.256,1.845
			c-0.395,2.081-3.106,4.188-2.051,5.938c0.537,0.891,1.883,1.16,2.825,0.787c0.587-0.232,1.636-1.728,1.799-2.586
			c0.154-0.811-0.324-1.828-0.231-2.405c0.096-0.594,1.211-1.207,1.773-1.1c0.975,0.185,0.628,0.995,1.954,1.247
			c1.504,0.284,1.576-1.893,3.503-1.526c0.982,0.186,0.751,7.505,0.444,8.548c-0.612,2.082,2.153,0.595,1.891-0.553
			c-0.127-0.556-0.268-0.807-0.44-1.308c-0.776-2.262,0.553-2.647,0.912-4.549l0,0c0.187-0.978-0.434-2.856,1.073-2.571
			c0.483,0.093,1.163,1.456,1.333,1.916c0.604,1.635,0.073,3.859,0.166,5.533c0.16,2.88,2.883,2.548,3.465-0.518
			c0.212-1.115,0.065-2.357-0.245-3.148c-0.72-1.836-2.403-2.415-3.138-4.492c-0.121-0.343-0.369-1.07-0.245-1.509
			c0.122-0.43,0.8-0.734,1.252-0.648c1.119,0.212,3.579,3.476,4.525,1.767c1.307-2.36-4.056-1.928-3.781-3.378
			c0.317-1.669,8.361-0.425,9.375-0.653c1.176-0.264,1.868-0.949,2.181-1.751l0.202-1.067
			C517.725,407.629,517.544,407.006,517.219,406.519z"/>
	</g>
	<path fill="#716659" d="M420.644,344.664c0,0,64.722,10.292,77.658,37.082c12.937,26.79,10.246,38.479-7.962,31.657
		s-57.313-53.097-69.697-52.445L420.644,344.664L420.644,344.664z"/>
</g>
</svg>
