<?xml version="1.0" encoding="utf-8"?>
<!-- Generator: Adobe Illustrator 17.0.2, SVG Export Plug-In . SVG Version: 6.00 Build 0)  -->
<!DOCTYPE svg PUBLIC "-//W3C//DTD SVG 1.1//EN" "http://www.w3.org/Graphics/SVG/1.1/DTD/svg11.dtd">
<svg version="1.1" id="Layer_1" xmlns="http://www.w3.org/2000/svg" xmlns:xlink="http://www.w3.org/1999/xlink" x="0px" y="0px"
	 width="221.5px" height="175.428px" viewBox="398.5 0 221.5 175.428" enable-background="new 398.5 0 221.5 175.428"
	 xml:space="preserve">
<g>
	<g>
		<path fill="#E8198D" d="M461.093,70.717l-44.23-31.558l26.578-37.25l44.23,31.558L461.093,70.717z M429.417,37.06l29.577,21.103
			l16.123-22.598L445.54,14.463L429.417,37.06z"/>
	</g>
	<g>
		<path fill="#E8198D" d="M575.059,152.03l-44.23-31.558l26.578-37.25l44.23,31.558L575.059,152.03z M543.383,118.373l29.577,21.103
			l16.123-22.598l-29.577-21.103L543.383,118.373z"/>
	</g>
	<g>
		<path fill="#E8198D" d="M504.722,138.699l-52.371-37.366l61.426-86.093l52.37,37.366L504.722,138.699z M464.905,99.234
			l37.718,26.911l50.971-71.44l-37.718-26.911L464.905,99.234z"/>
	</g>
	<g>
		
			<rect x="468.906" y="50.187" transform="matrix(0.814 0.5808 -0.5808 0.814 120.5096 -267.0141)" fill="#E8198D" width="16.666" height="9"/>
	</g>
	<g>
		
			<rect x="532.401" y="95.49" transform="matrix(0.814 0.5808 -0.5808 0.814 158.6294 -295.4681)" fill="#E8198D" width="16.666" height="9"/>
	</g>
	<g>
		<path fill="#E8198D" d="M474.694,164.071l-36.565-26.089l18.556-26.008l36.565,26.089L474.694,164.071z M446.893,136.517
			l26.336,18.79l11.258-15.778l-26.336-18.79L446.893,136.517z"/>
	</g>
	<g>
		
			<rect x="442.09" y="156.737" transform="matrix(0.814 0.5808 -0.5808 0.814 175.0815 -228.5681)" fill="#E8198D" width="4.792" height="4.792"/>
		
			<rect x="450.23" y="162.545" transform="matrix(0.814 0.5808 -0.5808 0.814 179.9686 -232.216)" fill="#E8198D" width="4.792" height="4.792"/>
	</g>
	
		<rect x="440.352" y="167.782" transform="matrix(0.814 0.5808 -0.5808 0.814 181.173 -225.505)" fill="#E8198D" width="4.792" height="4.792"/>
	<g>
		
			<rect x="473.871" y="111.583" transform="matrix(0.814 0.5808 -0.5808 0.814 158.7989 -255.4796)" fill="#E8198D" width="9" height="17.333"/>
	</g>
	
		<rect x="534.64" y="17.081" transform="matrix(0.814 0.5808 -0.5808 0.814 117.0093 -311.2951)" fill="#E8198D" width="20" height="20"/>
</g>
</svg>
