<svg version="1.1" xmlns="http://www.w3.org/2000/svg" xmlns:xlink="http://www.w3.org/1999/xlink" x="0px" y="0px" xmlns="http://www.w3.org/2000/svg" xmlns:xlink="http://www.w3.org/1999/xlink" x="0px" y="0px" width="172px" height="163.25px" viewBox="-53.75 0 172 163.25" enable-background="new -53.75 0 172 163.25" xml:space="preserve"
	>
<path opacity="0.8" fill="#333333" d="M-30.259,118.808c17.909,15.919,43.174,21.114,65.935,13.557
	c7.186-2.386,13.906-5.99,19.88-10.609l45.231,40.206l16.551-18.62l-45.224-40.199c6.944-11.518,10.272-24.842,9.465-38.56
	c-1.055-17.936-9.032-34.387-22.461-46.325C41.211,2.339,15.946-2.856-6.815,4.701c-11.149,3.701-21.187,10.321-29.029,19.143
	c-11.937,13.429-17.93,30.703-16.875,48.639C-51.664,90.42-43.688,106.872-30.259,118.808z M-27.849,71.021
	c-0.664-11.293,3.11-22.169,10.625-30.625c4.941-5.558,11.254-9.725,18.259-12.05c14.341-4.761,30.256-1.491,41.534,8.533
	c8.455,7.516,13.478,17.875,14.142,29.168c0.664,11.293-3.109,22.169-10.625,30.624c-4.94,5.558-11.254,9.725-18.259,12.05
	c-14.342,4.761-30.257,1.492-41.534-8.533C-22.162,92.672-27.185,82.314-27.849,71.021z"/>
</svg>
