<?xml version="1.0" encoding="utf-8"?>
<!-- Generator: Adobe Illustrator 19.1.1, SVG Export Plug-In . SVG Version: 6.00 Build 0)  -->
<svg version="1.1" id="Layer_1" xmlns="http://www.w3.org/2000/svg" xmlns:xlink="http://www.w3.org/1999/xlink" x="0px" y="0px"
	 viewBox="0 0 200 60.1" style="enable-background:new 0 0 200 60.1;" xml:space="preserve">
<style type="text/css">
	.st0{fill:#009FE3;}
	.st1{fill:#702281;}
</style>
<path class="st0" d="M48.6,58.1c-2.7,2.6-4.3,2.6-6.9,0l-4.3-4.3c-2.7-2.7-4.2-2.6-6.9,0l-4.4,4.3c-2.7,2.6-4.3,2.6-6.9,0l-7.9-7.9
	v-9.6c-1,0-2.1-0.7-3.4-2L0,30.8V19.4l7.9,7.9c2.6,2.6,4.2,2.6,6.9,0l4.5-4.3c1.1-1.1,2-1.7,2.9-1.9c-0.9-0.2-1.8-0.8-3-1.9
	l-7.9-7.9V0l7.9,7.9c2.6,2.6,4.1,2.6,6.9,0l4.4-4.3c2.7-2.6,4.2-2.7,6.9,0l4.3,4.3c2.6,2.7,4.2,2.7,6.9,0l8-7.9v11.3l-8,7.9
	c-1.1,1-2,1.7-2.8,1.9c0.9,0.2,1.8,0.8,2.9,1.9l4.3,4.3c2.6,2.6,4.2,2.7,6.9,0l7.9-7.9v11.3l-7.9,7.9c-1.3,1.3-2.3,1.9-3.3,2v9.6
	L48.6,58.1z M19.2,46.8c2.6,2.6,4.1,2.6,6.9,0l4.4-4.3c1.1-1.1,2.1-1.7,2.9-1.9c-0.9-0.2-1.8-0.8-3-1.9l-4.3-4.3
	c-2.7-2.7-4.2-2.6-6.9,0l-4.5,4.3c-0.8,0.8-1.5,1.3-2.1,1.6L19.2,46.8z M41.7,19.2l-4.3-4.3c-2.7-2.7-4.2-2.6-6.9,0l-4.4,4.3
	c-1.1,1-2,1.7-2.9,1.9c0.9,0.2,1.8,0.8,3,2l4.3,4.3c2.7,2.7,4.2,2.6,6.9,0l4.4-4.3c1.1-1.1,2-1.7,2.9-1.9
	C43.7,21,42.8,20.3,41.7,19.2z M37.4,42.5l4.3,4.3c2.6,2.7,4.2,2.7,6.9,0l6.6-6.4c-0.7-0.3-1.4-0.9-2.2-1.7l-4.3-4.3
	c-2.7-2.7-4.2-2.6-6.9,0l-4.4,4.3c-1.1,1-2,1.7-2.9,1.9C35.3,40.7,36.3,41.3,37.4,42.5z"/>
<path class="st1" d="M97.1,16h-8.4v-4.6h22.6V16h-8.4v24.6h-5.9V16z M115.1,20.2c2.2-1,5.1-1.6,7.5-1.6c6.6,0,9.3,2.7,9.3,9.1v2.8
	c0,2.2,0,3.8,0.1,5.4c0,1.6,0.1,3.1,0.3,4.8h-4.9c-0.2-1.1-0.2-2.6-0.2-3.2h-0.1c-1.3,2.4-4.1,3.7-6.6,3.7c-3.8,0-7.5-2.3-7.5-6.4
	c0-3.2,1.5-5.1,3.7-6.1c2.1-1,4.9-1.3,7.2-1.3h3.1c0-3.5-1.5-4.6-4.9-4.6c-2.4,0-4.8,0.9-6.6,2.3L115.1,20.2z M121.6,37
	c1.7,0,3.1-0.8,3.9-1.9c0.9-1.2,1.2-2.8,1.2-4.4h-2.4c-2.5,0-6.2,0.4-6.2,3.7C118.1,36.2,119.6,37,121.6,37z M158.6,40.6h-5.3v-2.9
	h-0.1c-1.7,2.1-4.1,3.4-7.1,3.4c-5.1,0-7.3-3.6-7.3-8.4V19.1h5.6v11.5c0,2.6,0,6.2,3.6,6.2c4.1,0,4.9-4.4,4.9-7.2V19.1h5.6V40.6z
	 M163.7,19.1h5.9l4.8,15.9h0.1l4.3-15.9h6.5l4.7,15.9h0.1l4.5-15.9h5.4l-6.6,21.5h-6.6l-4.7-16.4H182l-4.6,16.4H171L163.7,19.1z"/>
</svg>
