<?xml version="1.0" standalone="no"?>
<!DOCTYPE svg PUBLIC "-//W3C//DTD SVG 20010904//EN"
 "http://www.w3.org/TR/2001/REC-SVG-20010904/DTD/svg10.dtd">
<svg version="1.0" xmlns="http://www.w3.org/2000/svg"
 width="342.000000pt" height="342.000000pt" viewBox="0 0 342.000000 342.000000"
 preserveAspectRatio="xMidYMid meet">
<metadata>
Created by potrace 1.11, written by Peter Selinger 2001-2013
</metadata>
<g transform="translate(0.000000,342.000000) scale(0.100000,-0.100000)"
fill="#000000" stroke="none">
<path d="M569 3206 c-1 -1 -2 -128 -3 -284 l-1 -283 230 -228 c126 -125 245
-234 263 -242 17 -8 32 -16 32 -19 0 -3 -13 -11 -29 -18 -28 -12 -86 -64 -286
-256 -142 -136 -206 -157 -298 -99 -23 14 -138 122 -255 240 -117 117 -215
213 -218 213 -2 0 -4 -127 -4 -283 l0 -283 223 -220 c215 -214 274 -264 317
-267 11 -1 22 -8 24 -17 2 -8 3 -116 2 -240 l-3 -225 229 -227 c126 -126 246
-237 267 -248 93 -47 147 -22 332 157 220 214 246 233 314 233 61 0 108 -34
280 -204 224 -222 269 -242 379 -168 30 20 151 131 267 247 l212 210 1 239 1
240 25 6 c51 14 95 52 314 267 l223 220 1 282 c0 158 -3 281 -8 279 -5 -2
-107 -100 -227 -219 -217 -214 -264 -253 -315 -263 -35 -6 -96 11 -128 36 -14
11 -91 84 -172 164 -81 80 -170 160 -199 179 -28 19 -47 35 -42 35 26 0 110
73 309 269 l217 213 0 279 c0 154 -2 281 -4 283 -2 2 -103 -94 -225 -213 -249
-246 -290 -276 -364 -269 -60 6 -81 22 -282 222 -81 80 -166 155 -187 166 -50
25 -94 25 -146 0 -43 -20 -60 -35 -241 -209 -67 -64 -140 -129 -163 -145 -56
-39 -115 -45 -170 -17 -24 13 -134 114 -266 245 -124 122 -226 222 -226 222z
m1222 -674 c24 -16 116 -100 205 -188 88 -88 174 -166 192 -173 39 -16 40 -23
5 -38 -30 -14 -72 -51 -260 -232 -79 -76 -135 -122 -170 -138 -93 -43 -124
-26 -342 186 -95 94 -189 177 -208 186 l-34 17 43 28 c53 34 63 43 231 206
185 180 244 205 338 146z m-585 -964 c25 -11 108 -85 210 -187 93 -92 184
-174 202 -182 17 -7 31 -17 30 -21 -2 -4 -24 -22 -49 -40 -26 -18 -112 -96
-193 -173 -214 -205 -266 -228 -362 -162 -27 18 -129 112 -227 208 l-177 175
41 33 c22 19 90 81 151 140 166 161 199 189 243 210 50 24 80 23 131 -1z
m1157 -14 c22 -15 113 -98 200 -185 88 -87 168 -161 178 -164 11 -4 19 -10 19
-14 0 -15 -362 -363 -408 -392 -61 -39 -113 -39 -173 0 -24 16 -117 101 -206
188 -89 88 -175 166 -192 173 -31 13 -42 30 -18 30 19 0 87 58 245 210 81 78
167 152 192 165 57 29 108 26 163 -11z"/>
</g>
</svg>
